<svg xmlns="http://www.w3.org/2000/svg" viewBox="0 0 32 32" fill="none" preserveAspectRatio="xMinYMid slice" height="32">
  <rect width="32" height="32" fill="#DE483A" rx="5.12">
  </rect>
  <path fill="#ffffff" d="m6.764 14.993 6.374-3.668.008-.005 6.568-3.78c.277-.16.29-.65-.02-.828l-.217-.124c-.317-.18-.727-.414-.902-.516a1.02 1.02 0 0 0-.997.012c-.155.09-10.501 6.038-10.847 6.235a1.349 1.349 0 0 1-1.339 0L-.072 9.144v2.699l.056.032c1.364.795 4.592 2.675 5.382 3.12.479.27.937.264 1.398-.002Z">
  </path>
  <path fill="#ffffff" d="m6.764 20.385 6.366-3.664.024-.014 6.56-3.775c.277-.16.29-.651-.02-.828l-.217-.124c-.316-.18-.727-.414-.902-.516a1.02 1.02 0 0 0-.997.012c-.155.089-10.501 6.038-10.847 6.234a1.349 1.349 0 0 1-1.339 0c-.326-.188-5.464-3.174-5.464-3.174v2.698l.056.033c1.365.795 4.592 2.674 5.382 3.12.479.27.937.264 1.398-.002Z">
  </path>
  <path fill="#ffffff" d="m13.139 22.108-6.375 3.669c-.461.266-.92.272-1.398.002-.79-.446-4.017-2.325-5.382-3.12l-.056-.033v-2.698l5.464 3.174c.413.239.925.236 1.339 0 .346-.196 10.692-6.145 10.847-6.235a1.02 1.02 0 0 1 .997-.012 125.007 125.007 0 0 0 1.12.64c.31.178.296.669.019.829l-6.575 3.784Z">
  </path>
  <g>
</g>
</svg>