<svg width="531" height="409" viewBox="0 0 531 409" fill="none" xmlns="http://www.w3.org/2000/svg">
<path d="M136.254 95.5089L312.071 41.7085C387.056 18.763 466.444 60.9491 489.389 135.934C489.395 135.952 489.401 135.971 489.406 135.99C512.333 211.024 470.111 290.44 395.086 313.398L219.269 367.198C144.284 390.144 64.8963 347.958 41.9508 272.973C41.9451 272.954 41.9395 272.936 41.9338 272.917C19.0069 197.883 61.2291 118.467 136.254 95.5089Z" fill="#F7F7F7"/>
<mask id="mask0_972_12274" style="mask-type:alpha" maskUnits="userSpaceOnUse" x="35" y="35" width="461" height="339">
<path d="M136.254 95.5089L312.071 41.7085C387.056 18.763 466.444 60.9491 489.389 135.934C489.395 135.952 489.401 135.971 489.406 135.99C512.333 211.024 470.111 290.44 395.086 313.398L219.269 367.198C144.284 390.144 64.8963 347.958 41.9508 272.973C41.9451 272.954 41.9395 272.936 41.9338 272.917C19.0069 197.883 61.2291 118.467 136.254 95.5089Z" fill="#F7F7F7"/>
</mask>
<g mask="url(#mask0_972_12274)">
<path d="M316.402 304.494C329.164 350.685 333.105 379.155 335.534 406.997C337.636 431.144 337.402 457.701 336.919 502.54C336.436 547.378 336.763 560.236 335.922 589.26C335.572 601.327 335.595 611.239 335.666 617.736C331.78 619.336 326.587 621.021 320.257 621.928C306.592 623.881 295.38 621.073 289.711 619.258C282.392 577.174 279.887 556.838 279.887 531.957C279.887 527.169 272.107 468.467 268.735 456.929C256.285 414.329 256.02 394.127 255.195 387.017C253.295 370.562 254.331 346.768 268.735 316.672C271.024 314.198 279.091 306.101 293.379 303.43C303.898 301.458 312.54 303.41 316.402 304.501V304.494Z" fill="#333C40"/>
<path d="M218.199 301.797C198.373 345.422 191.814 373.147 185.062 400.266C179.211 423.787 175.813 443.593 169.281 487.955C162.748 532.317 158.108 551.203 154.401 580.001C152.861 591.975 151.288 601.761 150.203 608.167C153.791 610.355 158.657 612.832 164.767 614.719C177.959 618.787 189.472 617.769 195.354 616.863C209.162 576.443 235.479 496.698 241.106 480.696C257.58 433.847 263.825 399.778 265.752 392.884C270.201 376.93 282.918 340.752 273.396 308.772C271.521 305.97 254.8 309.224 241.106 304.35C231.024 300.756 222.183 301.331 218.198 301.804L218.199 301.797Z" fill="#333C40"/>
<mask id="mask1_972_12274" style="mask-type:alpha" maskUnits="userSpaceOnUse" x="150" y="301" width="127" height="317">
<path d="M218.199 301.797C198.373 345.422 191.814 373.147 185.062 400.266C179.211 423.787 175.813 443.593 169.281 487.955C162.748 532.317 158.108 551.203 154.401 580.001C152.861 591.975 151.288 601.761 150.203 608.167C153.791 610.355 158.657 612.832 164.767 614.719C177.959 618.787 189.472 617.769 195.354 616.863C209.162 576.443 235.479 496.698 241.106 480.696C257.58 433.847 263.825 399.778 265.752 392.884C270.201 376.93 282.918 340.752 273.396 308.772C271.521 305.97 254.8 309.224 241.106 304.35C231.024 300.756 222.183 301.331 218.198 301.804L218.199 301.797Z" fill="#293033"/>
</mask>
<g mask="url(#mask1_972_12274)">
<path fill-rule="evenodd" clip-rule="evenodd" d="M284.698 317.897C264.302 316.011 249.96 318.246 241.671 324.601C229.238 334.135 233.493 340.721 218.341 347.751C208.239 352.438 197.358 352.438 185.698 347.751L208.336 284.064L284.698 317.897Z" fill="#293033"/>
</g>
<path d="M197.658 342.055C197.793 342.727 198.857 344.533 204.593 345.495C207.961 346.368 211.251 344.391 212.659 342.057C216.958 342.057 219.118 340.562 219.51 336.699C222.73 337.354 225.047 334.23 224.13 330.936C226.464 330.211 227.051 328.29 227.051 325.562C227.05 323.048 224.915 320.551 224.129 319.368C221.498 315.4 209.629 309.009 209.629 309.009L198.857 296.325L196.172 293.158C190.327 295.371 180.205 301.685 174.109 304.043C180.873 310.971 193.91 324.354 194.921 325.559C196.344 327.19 196.655 337.474 197.658 342.055Z" fill="#E3B191"/>
<mask id="mask2_972_12274" style="mask-type:alpha" maskUnits="userSpaceOnUse" x="174" y="293" width="54" height="53">
<path d="M197.658 342.055C197.793 342.727 198.857 344.533 204.593 345.495C207.961 346.368 211.251 344.391 212.659 342.057C216.958 342.057 219.118 340.562 219.51 336.699C222.73 337.354 225.047 334.23 224.13 330.936C226.464 330.211 227.051 328.29 227.051 325.562C227.05 323.048 224.915 320.551 224.129 319.368C221.498 315.4 209.629 309.009 209.629 309.009L198.857 296.325L196.172 293.158C190.327 295.371 180.205 301.685 174.109 304.043C180.873 310.971 193.91 324.354 194.921 325.559C196.344 327.19 196.655 337.474 197.658 342.055Z" fill="#DE9A78"/>
</mask>
<g mask="url(#mask2_972_12274)">
<path d="M191.828 340.206C191.963 340.877 194.845 347.984 197.486 344.332C200.128 340.68 201.495 332.697 201.549 328.033C201.627 321.498 194.258 319.105 190.532 314.467C198.078 313.156 204.485 304.047 204.484 297.107L199.627 290.586C193.782 292.799 180.245 301.708 174.149 304.066C180.913 310.994 190.825 335.624 191.828 340.206Z" fill="#DE9A78"/>
</g>
<path fill-rule="evenodd" clip-rule="evenodd" d="M402.387 179.87C403.302 162.58 403.303 158.413 404.964 147.5C396.46 135.23 386.923 142.614 386.317 146.499C384.991 155.005 380.435 168.297 378.989 176.356L402.387 179.87Z" fill="#E3B191"/>
<path fill-rule="evenodd" clip-rule="evenodd" d="M398.547 135.96C397.765 134.202 402.673 130.307 409.51 127.262C412.853 125.772 418.013 120.961 420.487 120.522C423.073 120.064 423.658 123.375 423.16 125.573C422.644 127.852 418.649 129.999 412.911 135.498C407.173 140.997 399.33 137.718 398.547 135.96Z" fill="url(#paint0_linear_972_12274)"/>
<path fill-rule="evenodd" clip-rule="evenodd" d="M430.322 149.432C420.975 152.292 411.434 156.947 410.522 153.96C409.61 150.973 408.225 140.386 417.572 137.526C422.922 135.89 440.934 131.526 446.565 129.976C450.771 128.819 452.88 131.005 453.271 132.282C454.183 135.269 439.669 146.573 430.322 149.432Z" fill="#E3B191"/>
<path fill-rule="evenodd" clip-rule="evenodd" d="M409.268 156.771C398.39 158.691 394.82 160.741 391.503 154.879C390.904 153.821 386.284 146.704 386.789 145.048C388.367 139.871 394.574 133.788 400.785 131.772C402.371 131.257 409.145 134.107 412.301 135.09C421.608 137.988 426.141 137.272 427.145 142.973C428.149 148.674 420.145 154.852 409.268 156.771Z" fill="#E3B191"/>
<path d="M310.871 144.861C308.065 145.444 305.357 147.234 305.224 147.319C299.614 151.075 297.775 157.371 296.875 163.86C293.687 186.795 299.352 203.22 299.352 203.22C303.3 214.668 317.852 229.196 346.946 258.247C349.547 260.846 364.41 270.92 371.93 271.785C378.734 272.564 383.142 268.846 387.611 263.795C395.487 254.895 382.452 235.768 371.93 213.895C363.488 196.354 355.192 185.333 347.226 174.895C323.352 143.582 313.785 144.262 310.873 144.868L310.871 144.861Z" fill="#2858D6"/>
<path d="M358.815 227.844C358.398 229.116 357.099 233.158 357.313 238.556C357.5 243.236 358.166 259.985 362.491 264.489C366.406 268.564 378.883 270.253 383.313 267.696C395.12 260.878 400.466 229.207 400.466 229.207C404.791 211.753 405.377 197.647 405.457 190.038C405.547 181.282 405.039 174.013 404.554 169.018C402.448 167.813 398.031 165.613 391.909 164.913C386.381 164.284 382.024 165.176 379.734 165.794C378.231 170.159 368.697 197.932 358.815 227.844Z" fill="#2858D6"/>
<mask id="mask3_972_12274" style="mask-type:alpha" maskUnits="userSpaceOnUse" x="357" y="164" width="49" height="105">
<path d="M358.815 227.844C358.398 229.116 357.099 233.158 357.313 238.556C357.5 243.236 358.166 259.985 362.491 264.489C366.406 268.564 378.883 270.253 383.313 267.696C395.12 260.878 400.466 229.207 400.466 229.207C404.791 211.753 405.377 197.647 405.457 190.038C405.547 181.282 405.039 174.013 404.554 169.018C402.448 167.813 398.031 165.613 391.909 164.913C386.381 164.284 382.024 165.176 379.734 165.794C378.231 170.159 368.697 197.932 358.815 227.844Z" fill="#1644AC"/>
</mask>
<g mask="url(#mask3_972_12274)">
<path fill-rule="evenodd" clip-rule="evenodd" d="M408.9 182.038C399.764 175.241 387.035 172.999 370.714 175.313C373.637 165.5 374.699 154.453 393.626 155.583C406.245 156.337 411.336 165.156 408.9 182.038Z" fill="#1644AC"/>
</g>
<path d="M291.343 114.35C289.927 126.504 290.998 135.827 294.555 142.32C299.891 152.06 278.309 157.657 271.218 157.657C264.127 157.657 245.985 150.769 243.312 143.866C240.64 136.963 246.24 139.37 249.489 134.021C252.738 128.673 249.489 105.875 249.489 97.6553C249.489 89.4355 254.148 85.415 263.314 85.415C272.48 85.415 282.992 87.4007 287.938 94.9548C291.235 99.9908 292.37 106.456 291.343 114.35Z" fill="#E3B191"/>
<mask id="mask4_972_12274" style="mask-type:alpha" maskUnits="userSpaceOnUse" x="242" y="85" width="54" height="73">
<path d="M291.343 114.35C289.927 126.504 290.998 135.827 294.555 142.32C299.891 152.06 278.309 157.657 271.218 157.657C264.127 157.657 245.985 150.769 243.312 143.866C240.64 136.963 246.24 139.37 249.489 134.021C252.738 128.673 249.489 105.875 249.489 97.6553C249.489 89.4355 254.148 85.415 263.314 85.415C272.48 85.415 282.992 87.4007 287.938 94.9548C291.235 99.9908 292.37 106.456 291.343 114.35Z" fill="#DE9A78"/>
</mask>
<g mask="url(#mask4_972_12274)">
<path d="M262.496 125.183C248.313 118.266 240.66 104.774 245.403 95.0494C250.146 85.3246 265.489 83.049 279.672 89.9667C293.856 96.8844 301.508 110.376 296.765 120.101C292.022 129.825 276.679 132.101 262.496 125.183Z" fill="#DE9A78"/>
</g>
<path d="M199.87 219.675C198.513 202.528 202.278 179.893 204.797 166.382C207.316 152.872 211.564 145.37 215.721 142.909C217.849 141.651 236.236 136.123 242.053 134.879C247.768 142.395 257.205 147.151 266.122 147.778C270.152 148.062 280.369 147.578 282.098 147.287C291.544 145.7 290.532 138.209 291.577 138.46C298.379 140.091 312.521 142.049 317.987 146.702C321.478 149.68 327.911 156.297 332.105 174.531C336.299 192.765 336.299 221.13 332.105 236.389C329.282 246.662 326.173 254.925 326.282 264.866C326.386 274.666 323.799 289.469 319.482 307.226C316.28 310.896 309.871 317.592 293.367 318.611C276.863 319.631 242.053 307.226 215.721 307.168C215.323 303.6 210.879 293.955 209.244 283.266C208.295 277.062 208.637 269.888 209.244 268.9C208.745 268.583 205.409 266.906 204.797 263.371C204.184 259.835 206.092 257.613 207.48 255.918C201.681 243.372 201.228 236.822 199.87 219.675Z" fill="#4070FF"/>
<mask id="mask5_972_12274" style="mask-type:alpha" maskUnits="userSpaceOnUse" x="199" y="134" width="137" height="185">
<path d="M199.87 219.675C198.513 202.528 202.278 179.893 204.797 166.382C207.316 152.872 211.564 145.37 215.721 142.909C217.849 141.651 236.236 136.123 242.053 134.879C247.768 142.395 257.205 147.151 266.122 147.778C270.152 148.062 280.369 147.578 282.098 147.287C291.544 145.7 290.532 138.209 291.577 138.46C298.379 140.091 312.521 142.049 317.987 146.702C321.478 149.68 327.911 156.297 332.105 174.531C336.299 192.765 336.299 221.13 332.105 236.389C329.282 246.662 326.173 254.925 326.282 264.866C326.386 274.666 323.799 289.469 319.482 307.226C316.28 310.896 309.871 317.592 293.367 318.611C276.863 319.631 242.053 307.226 215.721 307.168C215.323 303.6 210.879 293.955 209.244 283.266C208.295 277.062 208.637 269.888 209.244 268.9C208.745 268.583 205.409 266.906 204.797 263.371C204.184 259.835 206.092 257.613 207.48 255.918C201.681 243.372 201.228 236.822 199.87 219.675Z" fill="#2858D6"/>
</mask>
<g mask="url(#mask5_972_12274)">
<path fill-rule="evenodd" clip-rule="evenodd" d="M206.441 194.696C206.441 202.928 204.543 216.666 206.441 234.306C207.209 241.447 211.636 250.902 214.887 257.369C210.629 260.913 212.289 264.797 215.63 266.196C218.307 298.631 224.45 307.152 227.68 314.025C219.835 319.902 190.004 320.917 186.79 303.819C183.576 286.72 182.15 233.2 173.156 216.48C164.163 199.76 196.123 184.627 206.441 194.696Z" fill="#2858D6"/>
</g>
<path d="M225.338 143.97C227.827 145.392 229.85 147.932 229.95 148.054C234.126 153.361 233.931 159.917 232.783 166.367C228.733 189.165 219.865 209.134 219.865 209.134C212.575 218.799 192.658 222.017 156.017 240.648C152.741 242.316 146.763 245.246 139.344 243.743C132.633 242.379 125.081 237.453 122.39 231.267C117.647 220.367 129.189 208.289 145.95 190.741C159.396 176.67 170.689 168.755 181.489 161.291C213.863 138.894 223.458 141.392 226.041 142.868L225.338 143.97Z" fill="#4070FF"/>
<path d="M164.624 227.747C163.926 226.424 161.685 222.239 157.183 218.217C153.278 214.731 149.108 211.005 142.138 210.983C135.829 210.964 127.703 213.978 123.39 219.831C123.282 219.979 122.106 221.445 121.475 223.224C116.625 236.837 131.242 260.173 131.242 260.173C141.911 277.211 152.789 288.641 158.839 294.618C165.804 301.493 175.097 310.981 179.485 314.472C182.086 313.715 188.874 313.038 194.183 308.66C198.974 304.705 201.054 300.909 202.332 298.587C188.107 272.15 175.538 248.537 164.624 227.747Z" fill="#4070FF"/>
<mask id="mask6_972_12274" style="mask-type:alpha" maskUnits="userSpaceOnUse" x="120" y="210" width="83" height="105">
<path d="M164.624 227.747C163.926 226.424 161.685 222.239 157.183 218.217C153.278 214.731 149.108 211.005 142.138 210.983C135.829 210.964 127.703 213.978 123.39 219.831C123.282 219.979 122.106 221.445 121.475 223.224C116.625 236.837 131.242 260.173 131.242 260.173C141.911 277.211 152.789 288.641 158.839 294.618C165.804 301.493 175.097 310.981 179.485 314.472C182.086 313.715 188.874 313.038 194.183 308.66C198.974 304.705 201.054 300.909 202.332 298.587C188.107 272.15 175.538 248.537 164.624 227.747Z" fill="#2858D6"/>
</mask>
<g mask="url(#mask6_972_12274)">
<path fill-rule="evenodd" clip-rule="evenodd" d="M205.62 297.089L198.074 285.745C196.658 292.817 193.275 298.244 187.925 302.024C182.575 305.805 175.816 307.567 167.649 307.31L178.481 318.514C186.19 318.48 192.721 316.444 198.075 312.404C203.429 308.365 205.944 303.259 205.62 297.089Z" fill="#2858D6"/>
</g>
<path fill-rule="evenodd" clip-rule="evenodd" d="M264.53 147.751C266.64 148.058 268.842 148.145 271.196 147.979L265.566 136.393L264.53 147.751Z" fill="#DCE2E6"/>
<path fill-rule="evenodd" clip-rule="evenodd" d="M237.339 138.533C238.219 139.986 242.459 143.753 248.347 146.703C254.879 149.974 264.243 150.91 264.243 150.91L264.529 147.754L264.579 147.237L265.569 136.395C265.569 136.395 257.231 135.933 251.112 132.466L251.112 132.457C250.675 132.212 250.246 131.958 249.831 131.674C248.729 130.928 247.736 130.065 246.932 129.065C240.813 131.841 238.111 137.79 237.339 138.533Z" fill="#EDF1F2"/>
<path fill-rule="evenodd" clip-rule="evenodd" d="M249.83 131.674C250.246 131.958 250.675 132.212 251.111 132.458C251.127 132.009 250.92 128.567 250.922 127.174C250.364 127.275 249.234 127.666 246.932 129.065C247.736 130.065 248.728 130.927 249.83 131.674Z" fill="#B2BBC0"/>
<path fill-rule="evenodd" clip-rule="evenodd" d="M282.099 147.287C283.588 146.809 290.032 146.723 291.274 145.679L290.504 137.321L282.099 147.287Z" fill="#DCE2E6"/>
<path fill-rule="evenodd" clip-rule="evenodd" d="M293.046 133.924C293.627 132.817 294.153 131.456 294.393 129.891C293.168 128.99 292.053 128.704 290.751 128.357C290.626 130.334 290.759 132.209 290.751 133.558C290.733 134.843 290.86 135.924 290.885 136.949C291.38 136.429 292.264 135.396 293.046 133.924Z" fill="#B2BBC0"/>
<path fill-rule="evenodd" clip-rule="evenodd" d="M291.635 149.581C295.48 147.606 297.79 146.454 300.181 143.513C301.192 142.269 301.175 141.024 301.175 141.024C301.175 141.024 300.25 136.303 296.8 132.436C295.912 131.442 295.228 130.495 294.393 129.891C294.153 131.456 293.627 132.817 293.046 133.924C292.264 135.397 291.38 136.429 290.885 136.949L290.504 137.324L290.647 138.832L290.928 141.894L291.274 145.684L291.635 149.581Z" fill="#EDF1F2"/>
</g>
<path fill-rule="evenodd" clip-rule="evenodd" d="M440.578 20.0197C477.659 29.9728 484.252 47.8799 475.498 80.6075C466.744 113.335 452.096 125.541 415.016 115.588C377.935 105.635 371.342 87.7277 380.096 55.0001C388.85 22.2725 403.498 10.0666 440.578 20.0197Z" fill="#00AAFF"/>
<path fill-rule="evenodd" clip-rule="evenodd" d="M417.712 80.5742L450.71 47.576C452.427 45.8591 455.21 45.859 456.927 47.5758C458.644 49.2925 458.644 52.076 456.927 53.7928L420.82 89.8996C419.103 91.6165 416.32 91.6165 414.603 89.8998L400.07 75.3673C398.354 73.6505 398.354 70.8671 400.071 69.1503C401.787 67.4334 404.571 67.4334 406.288 69.1501L417.712 80.5742Z" fill="white"/>
<path fill-rule="evenodd" clip-rule="evenodd" d="M274.971 102.509C253.874 102.509 238.206 81.9887 238.206 55.911C238.206 29.8333 255.798 22.7609 276.895 22.7609C297.991 22.7609 314.853 36.5933 314.853 62.671C314.853 88.7487 296.068 102.509 274.971 102.509Z" fill="#AB5425"/>
<path d="M245.617 91.5042C241.66 92.4907 237.375 88.9648 236.044 83.6291C234.714 78.2933 236.843 73.1682 240.799 72.1817C244.756 71.1953 249.041 74.7211 250.372 80.0569C251.702 85.3926 249.573 90.5178 245.617 91.5042Z" fill="#DE9A78"/>
<path fill-rule="evenodd" clip-rule="evenodd" d="M310.032 84.6272C312.948 63.6318 307.528 44.3202 306.18 40.7451C304.831 37.17 298.514 23.7296 279.512 22.8035C260.511 21.8774 244.617 36.2226 243.539 46.4397C242.461 56.6568 246.237 94.0059 249.022 99.7543C251.808 105.503 263.496 118.818 271.135 120.209C278.774 121.6 289.184 122.086 295.839 118.508C302.495 114.93 307.116 105.623 310.032 84.6272Z" fill="#E3B191"/>
<path fill-rule="evenodd" clip-rule="evenodd" d="M280.585 97.7911C271.046 94.7369 269.086 99.8442 269.086 99.8442C269.132 107.525 285.178 110.769 290.701 108.838C296.203 106.923 299.066 103.976 299.556 102.03C300.046 100.074 296.483 97.1629 294.36 97.6327C292.227 98.0975 287.2 99.9055 280.585 97.7911ZM246.932 93.7276C246.008 86.2336 244.58 77.9336 244.58 72.1541C248.974 81.3859 247.485 83.7888 254.267 89.2191C259.244 93.2031 279.59 94.7086 286.811 94.7086C294.032 94.7086 297.73 93.2475 301.175 92.4794C304.62 91.7113 308.111 90.0842 309.159 90.3829C309.918 102.509 301.749 116.553 296.762 120.108C292.733 122.979 285.402 123.492 276.377 122.888C256.165 121.536 249.483 114.42 246.932 93.7276Z" fill="#AB5425"/>
<path fill-rule="evenodd" clip-rule="evenodd" d="M309.847 51.9506C306.968 53.351 302.486 54.4764 294.674 54.6176C266.754 55.1222 263.444 46.5614 256.125 47.5208C246.554 48.7754 248.333 78.6624 248.846 82.8834C248.897 83.3048 245.357 74.7779 244.58 73.256C243.769 63.7174 236.18 37.7361 249.022 29.8117C261.687 22.0042 283.606 19.7944 302.426 22.1299C321.246 24.4659 319.127 41.8541 316.016 45.9792C314.342 48.1942 313.151 50.3392 309.847 51.9506Z" fill="#AB5425"/>
<path fill-rule="evenodd" clip-rule="evenodd" d="M300.5 71.0028C302.995 71.0028 303.487 73.1861 303.487 75.556C303.487 77.9259 302.036 79.5835 300.538 79.5835C299.04 79.5835 297.513 78.0023 297.513 75.556C297.513 73.1097 298.005 71.0028 300.5 71.0028ZM272.252 71.0028C274.747 71.0028 275.239 73.1861 275.239 75.556C275.239 77.9259 273.788 79.5835 272.29 79.5835C270.792 79.5835 269.265 78.0023 269.265 75.556C269.265 73.1097 269.757 71.0028 272.252 71.0028Z" fill="#333B40"/>
<path fill-rule="evenodd" clip-rule="evenodd" d="M291.559 87.9708C292.535 87.9708 292.452 89.263 291.986 90.48C291.647 91.3651 290.861 92.5469 289.664 93.2017C288.466 93.8564 283.536 93.2901 281.65 91.8192C281.298 91.5443 281.08 90.2891 281.65 89.8365C282.139 89.4486 283.347 89.8365 283.961 89.8365C284.458 89.8365 286.056 89.8162 287.596 89.3805C289.34 88.887 291.04 87.9708 291.559 87.9708Z" fill="#DE9A78"/>
<path d="M294.555 101.616C293.251 102.93 291.045 103.758 287.937 104.1C283.276 104.612 276.813 102.695 274.971 100.835" stroke="#DB4A39" stroke-width="2.568" stroke-linecap="round" stroke-linejoin="round"/>
<path fill-rule="evenodd" clip-rule="evenodd" d="M310.22 70.0881C308.467 69.4445 304.878 66.8031 300.565 66.8031C296.252 66.8031 295.694 68.1289 293.094 67.5262C290.522 66.9298 290.494 63.1113 293.645 62.5096C296.796 61.9078 300.453 61.5327 304.665 62.5096C308.877 63.4864 310.883 67.3806 311.441 68.4126C311.999 69.4445 311.973 70.7317 310.22 70.0881Z" fill="#8A3A17"/>
<path fill-rule="evenodd" clip-rule="evenodd" d="M260.124 69.4733C262.252 68.8324 265.758 66.0228 270.996 66.0228C276.233 66.0228 278.204 67.628 281.361 67.0278C284.485 66.4339 284.244 62.4638 280.418 61.8646C276.592 61.2653 271.443 60.8918 266.329 61.8646C261.214 62.8374 259.66 66.4302 258.983 67.4578C258.305 68.4854 257.995 70.1142 260.124 69.4733Z" fill="#8A3A17"/>
<defs>
<linearGradient id="paint0_linear_972_12274" x1="424.274" y1="124.947" x2="398.711" y2="136.328" gradientUnits="userSpaceOnUse">
<stop stop-color="#E3B191"/>
<stop offset="1" stop-color="#DE9A78"/>
</linearGradient>
</defs>
</svg>
